<?xml version="1.0" encoding="iso-8859-1"?>
<!-- Generator: Adobe Illustrator 27.0.0, SVG Export Plug-In . SVG Version: 6.00 Build 0)  -->
<svg version="1.1" xmlns="http://www.w3.org/2000/svg" xmlns:xlink="http://www.w3.org/1999/xlink" x="0px" y="0px"
	 viewBox="0 0 2000 2000" style="enable-background:new 0 0 2000 2000;" xml:space="preserve">
<g id="Root_White_Square">
	<rect x="55" y="55" style="fill:#FFFFFF;" width="1890" height="1890"/>
	<path style="display:none;" d="M1591.822,1142.153c34.451,0,46.755,4.341,46.755,4.341s91.05-41.235,130.422-99.833
		c0,0-105.814,75.96-135.344,75.96c-29.53,0-49.216-8.681-98.432,15.192s-118.118,32.554-179.638,34.724
		c0,0-113.197-21.703-115.658-54.257s-29.53-80.3-61.52-80.3c-21.419,0-78.122-11.698-123.98-37.98
		c45.858-26.282,102.561-37.98,123.98-37.98c31.99,0,59.059-47.746,61.52-80.3s115.658-54.257,115.658-54.257
		c61.52,2.17,130.422,10.851,179.638,34.724c49.216,23.873,68.902,15.192,98.432,15.192c29.53,0,135.344,75.96,135.344,75.96
		c-39.373-58.598-130.422-99.833-130.422-99.833s-12.304,4.341-46.755,4.341s-49.216-19.533-49.216-19.533l51.677-41.235
		l88.589-28.214l-98.432,17.362l-68.902,41.235l-34.451-10.851l-63.981-10.851c0,0-2.461-26.043,27.069-75.96
		c29.53-49.916,141.496-79.215,141.496-79.215s118.118-62.938,135.344-99.833c16.955-36.309,38.684-112.594,39.348-114.96
		l-54.113,110.619c0,0-27.069,30.384-46.755,39.065c-19.686,8.681-78.746,26.043-110.736,45.576
		c-31.99,19.533-76.285,28.214-76.285,28.214c17.226-15.192,39.373-73.789,39.373-91.152s125.501-86.811,125.501-86.811
		c2.461-30.384,27.069-55.451,27.069-55.451V233.891l-34.451,190.985l-29.53,41.235l-118.118,71.619l-46.755,91.152
		c-39.373,13.022-86.128-41.235-110.736-62.938c-24.608-21.703-12.304-58.598-12.304-99.833c0-40.584-90.607-173.709-93.437-177.854
		c1.772,3.972,54.31,119.93,68.828,158.322c14.765,39.065-9.843,95.492-9.843,95.492s-14.765-10.851-29.53-13.022
		c-24.313-3.581-67.352-73.442-68.878-75.895c1.009,2.778,33.27,91.716,56.574,97.598c17.226,4.341,38.142,18.99,54.753,32.554
		c16.61,13.564,28.914,26.043,28.914,26.043c8.687,0,24.608,2.17,34.451,15.192c27.922,36.939,54.138,54.257,54.138,54.257
		c-19.686,73.789-54.138,112.855-54.138,112.855c-14.765,0-76.285,15.192-76.285,15.192c-14.765-49.916-29.53-62.938-63.981-78.13
		c-17.816-7.856-33.467-15.344-47.223-22.462c0,0-0.049-0.043-0.172-0.109c-4.159-2.995-86.842-63.264-43.655-109.816
		c44.294-47.746,49.216-80.3,49.216-80.3s-29.825,45.988-61.668,64.24c0,0-34.303-75.092,19.834-125.008
		c0,0-120.087,39.347-38.388,200.729c23.624,46.683,67.918,74.896,67.918,74.896s29.53,26.043,49.216,36.895
		c19.686,10.851,12.304,49.916,12.304,49.916s-36.912,102.003-93.51,99.833c-53.953-2.069-121.274,30.332-127.453,33.367
		c-0.162-0.274-0.349-0.537-0.508-0.813c-0.159,0.276-0.346,0.538-0.508,0.813c-6.18-3.036-73.5-35.436-127.453-33.367
		c-56.598,2.17-93.51-99.833-93.51-99.833s-7.382-39.065,12.304-49.916c19.686-10.851,49.216-36.895,49.216-36.895
		s44.294-28.214,67.918-74.896c81.699-161.382-38.388-200.729-38.388-200.729c54.138,49.916,19.834,125.008,19.834,125.008
		c-31.843-18.252-61.668-64.24-61.668-64.24s4.922,32.554,49.216,80.3c43.187,46.553-39.496,106.821-43.655,109.816
		c-0.123,0.065-0.172,0.109-0.172,0.109c-13.756,7.119-29.406,14.606-47.223,22.462c-34.451,15.192-49.216,28.214-63.981,78.13
		c0,0-61.52-15.192-76.285-15.192c0,0-34.451-39.065-54.138-112.855c0,0,26.215-17.318,54.138-54.257
		c9.843-13.022,25.765-15.192,34.451-15.192c0,0,12.304-12.479,28.914-26.043c16.61-13.564,37.527-28.214,54.753-32.554
		c23.304-5.881,55.565-94.82,56.574-97.598c-1.526,2.452-44.565,72.314-68.878,75.895c-14.765,2.17-29.53,13.022-29.53,13.022
		s-24.608-56.427-9.843-95.492c14.519-38.392,67.057-154.35,68.828-158.322c-2.83,4.145-93.437,137.27-93.437,177.854
		c0,41.235,12.304,78.13-12.304,99.833c-24.608,21.703-71.363,75.96-110.736,62.938l-46.755-91.152l-118.118-71.619l-29.53-41.235
		l-34.451-190.985v191.961c0,0,24.608,25.067,27.069,55.451c0,0,125.501,69.449,125.501,86.811s22.147,75.96,39.373,91.152
		c0,0-44.294-8.681-76.285-28.214s-91.05-36.895-110.736-45.576c-19.686-8.681-46.755-39.065-46.755-39.065l-54.113-110.619
		c0.664,2.366,22.393,78.651,39.348,114.96c17.226,36.895,135.344,99.833,135.344,99.833s111.966,29.299,141.496,79.215
		s27.069,75.96,27.069,75.96l-63.981,10.851l-34.451,10.851l-68.902-41.235l-98.432-17.362l88.589,28.214l51.677,41.235
		c0,0-14.765,19.533-49.216,19.533s-46.755-4.341-46.755-4.341S270.373,894.741,231,953.339c0,0,105.814-75.96,135.344-75.96
		s49.216,8.681,98.432-15.192c49.216-23.873,118.118-32.554,179.638-34.724c0,0,113.197,21.703,115.658,54.257
		c2.461,32.554,29.53,80.3,61.52,80.3c21.419,0,78.122,11.698,123.98,37.98c-45.858,26.281-102.561,37.98-123.98,37.98
		c-31.99,0-59.059,47.746-61.52,80.3c-2.461,32.554-115.658,54.257-115.658,54.257c-61.52-2.17-130.422-10.851-179.638-34.724
		s-68.902-15.192-98.432-15.192S231,1046.661,231,1046.661c39.373,58.598,130.422,99.833,130.422,99.833s12.304-4.341,46.755-4.341
		s49.216,19.532,49.216,19.532l-51.677,41.235l-88.589,28.214l98.432-17.362l68.902-41.235l34.451,10.851l63.981,10.851
		c0,0,2.461,26.043-27.069,75.96s-141.496,79.215-141.496,79.215s-118.118,62.938-135.344,99.833
		c-16.955,36.309-38.684,112.594-39.348,114.96l54.113-110.619c0,0,27.069-30.384,46.755-39.065
		c19.686-8.681,78.746-26.043,110.736-45.576c31.99-19.532,76.285-28.214,76.285-28.214c-17.226,15.192-39.373,73.79-39.373,91.152
		c0,17.362-125.501,86.811-125.501,86.811c-2.461,30.384-27.069,55.451-27.069,55.451v191.961l34.451-190.985l29.53-41.235
		l118.118-71.619l46.755-91.152c39.373-13.022,86.128,41.235,110.736,62.938c24.608,21.703,12.304,58.598,12.304,99.833
		c0,40.584,90.607,173.709,93.437,177.854c-1.772-3.972-54.31-119.93-68.828-158.322c-14.765-39.065,9.843-95.492,9.843-95.492
		s14.765,10.851,29.53,13.022c24.313,3.581,67.352,73.442,68.878,75.895c-1.009-2.778-33.27-91.716-56.574-97.598
		c-17.226-4.341-38.142-18.99-54.753-32.554c-16.61-13.564-28.914-26.043-28.914-26.043c-8.687,0-24.608-2.17-34.451-15.192
		c-27.923-36.939-54.138-54.257-54.138-54.257c19.686-73.79,54.138-112.855,54.138-112.855c14.765,0,76.285-15.192,76.285-15.192
		c14.765,49.916,29.53,62.938,63.981,78.13c17.816,7.856,33.467,15.344,47.223,22.462c0,0,0.049,0.043,0.172,0.109
		c4.159,2.995,86.842,63.264,43.655,109.816c-44.294,47.746-49.216,80.3-49.216,80.3s29.825-45.988,61.668-64.24
		c0,0,34.303,75.092-19.834,125.008c0,0,120.087-39.347,38.388-200.729c-23.624-46.683-67.918-74.896-67.918-74.896
		s-29.53-26.043-49.216-36.895c-19.686-10.851-12.304-49.917-12.304-49.917s36.912-102.003,93.51-99.833
		c53.953,2.069,121.274-30.331,127.453-33.367c0.162,0.275,0.349,0.537,0.508,0.813c0.159-0.276,0.346-0.538,0.508-0.813
		c6.179,3.035,73.5,35.436,127.453,33.367c56.599-2.17,93.51,99.833,93.51,99.833s7.382,39.065-12.304,49.917
		c-19.686,10.851-49.216,36.895-49.216,36.895s-44.294,28.214-67.918,74.896c-81.699,161.382,38.388,200.729,38.388,200.729
		c-54.138-49.916-19.834-125.008-19.834-125.008c31.843,18.252,61.668,64.24,61.668,64.24s-4.922-32.554-49.216-80.3
		c-43.187-46.552,39.496-106.821,43.655-109.816c0.123-0.065,0.172-0.109,0.172-0.109c13.756-7.119,29.406-14.606,47.223-22.462
		c34.451-15.192,49.216-28.214,63.981-78.13c0,0,61.52,15.192,76.285,15.192c0,0,34.451,39.065,54.138,112.855
		c0,0-26.215,17.318-54.138,54.257c-9.843,13.022-25.765,15.192-34.451,15.192c0,0-12.304,12.479-28.914,26.043
		c-16.61,13.564-37.527,28.214-54.753,32.554c-23.304,5.881-55.565,94.82-56.574,97.598c1.526-2.452,44.565-72.314,68.878-75.895
		c14.765-2.17,29.53-13.022,29.53-13.022s24.608,56.427,9.843,95.492c-14.519,38.392-67.057,154.35-68.828,158.322
		c2.83-4.145,93.437-137.27,93.437-177.854c0-41.235-12.304-78.13,12.304-99.833c24.608-21.703,71.363-75.96,110.736-62.938
		l46.755,91.152l118.118,71.619l29.53,41.235l34.451,190.985v-191.961c0,0-24.608-25.067-27.069-55.451
		c0,0-125.501-69.449-125.501-86.811c0-17.362-22.147-75.96-39.373-91.152c0,0,44.294,8.681,76.285,28.214
		c31.99,19.533,91.05,36.895,110.736,45.576s46.755,39.065,46.755,39.065l54.113,110.619c-0.664-2.366-22.393-78.651-39.348-114.96
		c-17.226-36.895-135.344-99.833-135.344-99.833s-111.966-29.299-141.496-79.215c-29.53-49.916-27.069-75.96-27.069-75.96
		l63.981-10.851l34.451-10.851l68.902,41.235l98.432,17.362l-88.589-28.214l-51.677-41.235
		C1542.606,1161.686,1557.371,1142.153,1591.822,1142.153z"/>
	<g style="display:none;">
		<g style="display:inline;">
			<path d="M952.997,1012.906c-0.001,0-9.733,2.918-23.38,5.681c-11.517,11.353-36.451,36.24-42.479,44.78
				c-7.908,11.203-23.318,10.215-23.318,10.215c-25.295-3.625-62.354,1.648-62.354,1.648s1.977-11.862-0.659,1.318
				c-2.636,13.18-6.59,35.587-13.18,40.2c-17.71,12.397-36.246,15.816-36.246,15.816s0,0,21.088-11.203s15.816-46.131,15.816-46.131
				c-11.203-0.659-35.587,8.567-35.587,8.567l29.656-14.498c0,0,60.629-10.544,77.104-12.521
				c11.539-1.385,25.987-21.519,33.609-33.459c-6.851,0.265-13.588,0.074-19.77-0.809c-21.09-3.013-27.001-6.026-36.458-9.773
				l-25.679-0.038c-2.451-0.004-4.862-0.672-6.938-1.975c-0.011-0.007-0.022-0.014-0.032-0.02
				c-4.573-2.847-8.897-5.951-12.785-9.305c-28.252-24.397-89.21,12.943-89.21,12.943s-19.869,17.088-14.195,30.769
				c5.674,13.681,10.169,39.238,10.169,39.238s11.203,32.746,4.172,66.501c-24.173,116.012-101.422,87.906-102.318,87.569
				c48.404-3.44,61.618-56.214,61.618-56.214c-23.612-3.651-57.341,7.44-58.164,7.71c0.488-0.455,16.581-14.834,58.362-21.102
				c41.379-6.208,23.593-71.246,22.683-74.495c-0.04-0.092-0.046-0.132-0.046-0.132c-4.152-9.318-9.127-19.612-15.072-30.987
				c-11.493-21.991-13.747-34.77-0.811-66.547c0,0-37.933-17.477-45.538-23.553c0,0-33.801,5.944-74.284,35.85
				c0,0,6.373,19.698,5.555,50.197c-0.283,10.762,7.019,18.426,11.493,21.998c0,0,1.206,11.487,4.178,25.299
				c2.972,13.819,7.717,29.965,14.802,39.284c9.582,12.613-10.386,71.681-11.006,73.526c0.224-1.898,6.794-55.568-4.251-67.41
				c-6.715-7.196-9.852-18.854-9.852-18.854s-35.883,18.94-44.338,45.123c-8.317,25.741-28.957,107.057-29.675,109.831
				c0.244-3.295,8.343-109.113,25.036-130.003c16.956-21.24,38.467-35.172,34.717-56.471c-3.737-21.293-5.503-68.465-31.132-77.948
				l-61.565,27.698l-90.278-11.697l-32.16,9.088L234,1132.778l78.95-98.839c0,0,22.986-2.788,36.747-17.424
				c0,0,93.184,15.856,100.328,6.92c7.144-8.943,42.645-30.005,57.769-30.743c0,0-26.387-13.747-50.889-16.851
				c-24.509-3.097-62.059-18.452-75.76-22.077c-13.707-3.625-40.147,0.89-40.147,0.89l-73.361,34.704
				c1.318-0.949,43.877-31.29,67.542-43.007c24.047-11.922,110.754,4.257,110.754,4.257s69.704,30.967,105.442,17.404
				c35.738-13.562,45.175-27.982,45.175-27.982l-28.482-31.903l-13.279-19.757l-52.431-7.104l-57.828-31.547l57.222,21.912
				l43.561,0.02c0,0,0.435-16.133-17.299-30.301c-17.741-14.169-25.866-16.996-25.866-16.996s-29.926-58.678-26.097-105.047
				c0,0,23.243,82.633,38.447,94.779c15.21,12.146,28.918,15.77,44.444,48.306c15.52,32.536,47.423,65.348,78.212,91.768
				c0,0,67.219,35.376,81.869,19.625c14.656-15.75,48.233-29.201,64.708-16.047c6.373,5.092,20.426,13.02,37.796,19.833
				c0.107,0.031,33.544,9.743,58.784-0.001c25.281-9.759,37.718,9.464,72.688,9.408h47.231v25.998L952.997,1012.906z"/>
			<path d="M1047.003,987.094c0.001,0,9.733-2.918,23.38-5.681c11.517-11.353,36.451-36.24,42.479-44.78
				c7.908-11.203,23.318-10.215,23.318-10.215c25.295,3.625,62.354-1.648,62.354-1.648s-1.977,11.862,0.659-1.318
				c2.636-13.18,6.59-35.587,13.18-40.2c17.709-12.397,36.246-15.816,36.246-15.816s0,0-21.088,11.203
				c-21.089,11.203-15.816,46.131-15.816,46.131c11.203,0.659,35.587-8.567,35.587-8.567l-29.656,14.498
				c0,0-60.629,10.544-77.104,12.521c-11.539,1.385-25.987,21.518-33.609,33.459c6.851-0.265,13.588-0.074,19.77,0.809
				c21.089,3.013,27.001,6.026,36.458,9.773l25.679,0.038c2.451,0.004,4.862,0.672,6.938,1.975c0.011,0.007,0.022,0.014,0.032,0.02
				c4.574,2.847,8.897,5.951,12.785,9.305c28.252,24.397,89.21-12.943,89.21-12.943s19.869-17.088,14.195-30.769
				c-5.674-13.681-10.168-39.238-10.168-39.238s-11.203-32.746-4.172-66.501c24.173-116.012,101.422-87.906,102.318-87.57
				c-48.405,3.44-61.618,56.214-61.618,56.214c23.612,3.651,57.341-7.44,58.164-7.71c-0.488,0.455-16.581,14.834-58.362,21.102
				c-41.38,6.208-23.593,71.246-22.683,74.495c0.04,0.092,0.046,0.132,0.046,0.132c4.152,9.318,9.127,19.612,15.072,30.987
				c11.493,21.991,13.747,34.77,0.811,66.547c0,0,37.933,17.477,45.538,23.553c0,0,33.801-5.944,74.284-35.85
				c0,0-6.373-19.698-5.555-50.197c0.283-10.762-7.019-18.426-11.493-21.998c0,0-1.206-11.487-4.178-25.299
				c-2.972-13.819-7.717-29.965-14.802-39.284c-9.582-12.613,10.386-71.681,11.006-73.526c-0.224,1.898-6.794,55.568,4.251,67.41
				c6.715,7.196,9.852,18.854,9.852,18.854s35.883-18.94,44.338-45.123c8.317-25.741,28.957-107.057,29.675-109.831
				c-0.244,3.295-8.343,109.113-25.036,130.003c-16.956,21.24-38.467,35.171-34.717,56.471c3.737,21.293,5.503,68.465,31.132,77.948
				l61.565-27.698l90.278,11.697l32.16-9.088L1766,867.222l-78.95,98.839c0,0-22.986,2.788-36.747,17.424
				c0,0-93.184-15.856-100.328-6.92c-7.144,8.943-42.645,30.005-57.769,30.743c0,0,26.387,13.747,50.889,16.851
				c24.509,3.098,62.059,18.452,75.76,22.077c13.708,3.625,40.147-0.89,40.147-0.89l73.361-34.704
				c-1.318,0.949-43.877,31.29-67.542,43.007c-24.047,11.922-110.754-4.257-110.754-4.257s-69.704-30.967-105.442-17.404
				c-35.738,13.562-45.175,27.982-45.175,27.982l28.482,31.903l13.279,19.757l52.431,7.104l57.828,31.547l-57.222-21.912
				l-43.561-0.02c0,0-0.435,16.133,17.299,30.301c17.741,14.169,25.866,16.996,25.866,16.996s29.926,58.679,26.097,105.047
				c0,0-23.243-82.634-38.447-94.779c-15.21-12.146-28.917-15.77-44.444-48.306c-15.52-32.536-47.423-65.348-78.212-91.768
				c0,0-67.219-35.376-81.869-19.625c-14.656,15.75-48.233,29.201-64.708,16.047c-6.373-5.092-20.426-13.02-37.796-19.833
				c-0.107-0.031-33.544-9.743-58.784,0.001c-25.281,9.759-37.718-9.464-72.688-9.408h-47.231v-25.998L1047.003,987.094z"/>
		</g>
		<g style="display:inline;">
			<path d="M1012.906,1047.003c0,0.001,2.918,9.733,5.681,23.38c11.353,11.517,36.24,36.451,44.78,42.479
				c11.203,7.908,10.215,23.318,10.215,23.318c-3.625,25.295,1.648,62.354,1.648,62.354s-11.862-1.977,1.318,0.659
				c13.18,2.636,35.587,6.59,40.2,13.18c12.397,17.709,15.816,36.246,15.816,36.246s0,0-11.203-21.088
				c-11.203-21.089-46.131-15.816-46.131-15.816c-0.659,11.203,8.567,35.587,8.567,35.587l-14.498-29.656
				c0,0-10.544-60.629-12.521-77.104c-1.385-11.539-21.519-25.987-33.459-33.609c0.265,6.851,0.074,13.588-0.809,19.77
				c-3.013,21.089-6.026,27.001-9.773,36.458l-0.038,25.679c-0.004,2.451-0.672,4.862-1.975,6.938
				c-0.007,0.011-0.014,0.022-0.02,0.032c-2.847,4.574-5.951,8.897-9.305,12.785c-24.397,28.252,12.943,89.21,12.943,89.21
				s17.088,19.869,30.769,14.195c13.681-5.674,39.238-10.168,39.238-10.168s32.746-11.203,66.501-4.172
				c116.012,24.173,87.906,101.422,87.569,102.318c-3.44-48.405-56.214-61.618-56.214-61.618c-3.651,23.612,7.44,57.341,7.71,58.164
				c-0.455-0.488-14.834-16.581-21.102-58.362c-6.208-41.38-71.246-23.593-74.495-22.683c-0.092,0.04-0.132,0.046-0.132,0.046
				c-9.318,4.152-19.612,9.127-30.987,15.072c-21.991,11.493-34.77,13.747-66.547,0.811c0,0-17.477,37.933-23.553,45.538
				c0,0,5.944,33.801,35.85,74.284c0,0,19.698-6.373,50.197-5.555c10.762,0.283,18.426-7.019,21.998-11.493
				c0,0,11.487-1.206,25.299-4.178c13.819-2.972,29.965-7.717,39.284-14.802c12.613-9.582,71.681,10.386,73.526,11.006
				c-1.898-0.224-55.568-6.794-67.41,4.251c-7.196,6.715-18.854,9.852-18.854,9.852s18.94,35.883,45.123,44.338
				c25.741,8.317,107.057,28.957,109.831,29.675c-3.295-0.244-109.113-8.343-130.003-25.036
				c-21.24-16.956-35.172-38.467-56.471-34.717c-21.293,3.737-68.465,5.503-77.948,31.132l27.698,61.565l-11.697,90.278l9.088,32.16
				l84.169,96.295l-98.839-78.95c0,0-2.788-22.986-17.424-36.747c0,0,15.856-93.184,6.92-100.328
				c-8.943-7.144-30.005-42.645-30.743-57.769c0,0-13.747,26.387-16.851,50.889c-3.097,24.509-18.452,62.059-22.077,75.76
				c-3.625,13.708,0.89,40.147,0.89,40.147l34.704,73.361c-0.949-1.318-31.29-43.877-43.007-67.542
				c-11.922-24.047,4.257-110.754,4.257-110.754s30.967-69.704,17.404-105.442c-13.562-35.738-27.982-45.175-27.982-45.175
				l-31.903,28.482l-19.757,13.279l-7.104,52.431l-31.547,57.828l21.912-57.222l0.02-43.561c0,0-16.133-0.435-30.301,17.299
				c-14.169,17.741-16.996,25.866-16.996,25.866s-58.678,29.926-105.047,26.097c0,0,82.633-23.243,94.779-38.447
				c12.146-15.21,15.77-28.917,48.306-44.444c32.536-15.52,65.348-47.423,91.768-78.212c0,0,35.376-67.219,19.625-81.869
				c-15.75-14.656-29.201-48.233-16.047-64.708c5.092-6.373,13.02-20.426,19.833-37.796c0.031-0.107,9.743-33.544-0.001-58.784
				c-9.759-25.281,9.464-37.718,9.408-72.688v-47.231h25.998L1012.906,1047.003z"/>
			<path d="M987.094,952.997c0-0.001-2.918-9.733-5.681-23.38c-11.353-11.517-36.24-36.451-44.78-42.479
				c-11.203-7.908-10.215-23.318-10.215-23.318c3.625-25.295-1.648-62.354-1.648-62.354s11.862,1.977-1.318-0.659
				c-13.18-2.636-35.587-6.59-40.2-13.18c-12.397-17.71-15.816-36.246-15.816-36.246s0,0,11.203,21.088
				c11.203,21.088,46.131,15.816,46.131,15.816c0.659-11.203-8.567-35.587-8.567-35.587l14.498,29.656
				c0,0,10.544,60.629,12.521,77.104c1.385,11.539,21.518,25.987,33.459,33.609c-0.265-6.851-0.074-13.588,0.809-19.77
				c3.013-21.09,6.026-27.001,9.773-36.458l0.038-25.679c0.004-2.451,0.672-4.862,1.975-6.938c0.007-0.011,0.014-0.022,0.02-0.032
				c2.847-4.573,5.951-8.897,9.305-12.785c24.397-28.252-12.943-89.21-12.943-89.21S968.572,682.326,954.891,688
				c-13.681,5.674-39.238,10.169-39.238,10.169s-32.746,11.203-66.501,4.172c-116.012-24.173-87.906-101.422-87.57-102.318
				c3.44,48.404,56.214,61.618,56.214,61.618c3.651-23.612-7.44-57.341-7.71-58.164c0.455,0.488,14.834,16.581,21.102,58.362
				c6.208,41.379,71.246,23.593,74.495,22.683c0.092-0.04,0.132-0.046,0.132-0.046c9.318-4.152,19.612-9.127,30.987-15.072
				c21.991-11.493,34.77-13.747,66.547-0.811c0,0,17.477-37.933,23.553-45.538c0,0-5.944-33.801-35.85-74.284
				c0,0-19.698,6.373-50.197,5.555c-10.762-0.283-18.426,7.019-21.998,11.493c0,0-11.487,1.206-25.299,4.178
				c-13.819,2.972-29.965,7.717-39.284,14.802c-12.613,9.582-71.681-10.386-73.526-11.006c1.898,0.224,55.568,6.794,67.41-4.251
				c7.196-6.715,18.854-9.852,18.854-9.852s-18.94-35.883-45.123-44.338c-25.741-8.317-107.057-28.957-109.831-29.675
				c3.295,0.244,109.113,8.343,130.003,25.036c21.24,16.956,35.171,38.467,56.471,34.717c21.293-3.737,68.465-5.503,77.948-31.132
				l-27.698-61.565l11.697-90.278l-9.088-32.16L867.222,234l98.839,78.95c0,0,2.788,22.986,17.424,36.747
				c0,0-15.856,93.184-6.92,100.328c8.943,7.144,30.005,42.645,30.743,57.769c0,0,13.747-26.387,16.851-50.889
				c3.098-24.509,18.452-62.059,22.077-75.76c3.625-13.707-0.89-40.147-0.89-40.147l-34.704-73.361
				c0.949,1.318,31.29,43.877,43.007,67.542c11.922,24.047-4.257,110.754-4.257,110.754s-30.967,69.704-17.404,105.442
				c13.562,35.738,27.982,45.175,27.982,45.175l31.903-28.482l19.757-13.279l7.104-52.431l31.547-57.828l-21.912,57.222
				l-0.02,43.561c0,0,16.133,0.435,30.301-17.299c14.169-17.741,16.996-25.866,16.996-25.866s58.679-29.926,105.047-26.097
				c0,0-82.634,23.243-94.779,38.447c-12.146,15.21-15.77,28.918-48.306,44.444c-32.536,15.52-65.348,47.423-91.768,78.212
				c0,0-35.376,67.219-19.625,81.869c15.75,14.656,29.201,48.233,16.047,64.708c-5.092,6.373-13.02,20.426-19.833,37.796
				c-0.031,0.107-9.743,33.544,0.001,58.784c9.759,25.281-9.464,37.718-9.408,72.688v47.231h-25.998L987.094,952.997z"/>
		</g>
	</g>
	<g>
		<path d="M1421.027,913.727c33.38-27.489,66.759-39.27,66.759-39.27c107.993-47.124,53.015-121.737,53.015-121.737
			c22.58,75.595-83.449,112.901-83.449,112.901l-53.996,12.763l-119.704-69.458l-0.015,0.001
			c18.834-15.169,30.522-48.091,29.693-71.228c-1.08-29.845,99.638-61.094,99.638-61.094c56.156-4.3,119.705-3.407,166.878,13.293
			c47.183,16.709,64.197,6.803,91.057,3.799c26.841-3.004,94.719,32.516,94.719,32.516c-46.142-38.288-92.677-54.723-92.677-54.723
			s-10.76,5.203-42.088,8.708c-31.308,3.505-46.731-12.763-46.731-12.763l42.795-42.755l77.696-34.656l-87.749,25.8l-58.454,44.493
			l-32.427-6.352l-59.288-3.367c0,0-4.889-23.405,16.876-71.815c21.775-48.4,120.608-86.424,120.608-86.424
			s101.012-69.243,112.911-104.566c11.732-34.724,23.729-106.294,24.092-108.523l-37.954,106.088c0,0-21.53,30.385-38.543,40.291
			c-17.004,9.896-68.948,31.681-96.055,52.7c-27.096,21.01-66.504,33.419-66.504,33.419l-26.066,4.604
			c0,0-8.895-6.146-12.822-33.635c-3.927-27.489-10.799-40.252-10.799-40.252c0-23.562,20.617-28.471,20.617-28.471
			c26.507-14.726,49.088-47.124,49.088-47.124l15.233,3.744c0,0,41.709-11.598,45.636-25.343s-3.927-37.307-3.927-37.307
			s-0.982,12.763-1.964,29.453c-0.982,16.69-36.325,16.69-36.325,16.69l1.964-49.088l44.179-34.361l-52.033,28.471l-12.763,46.142
			c0,0-48.106,52.033-65.777,53.996s-26.507,36.325-26.507,36.325c14.726,34.361,16.081,100.414,16.081,100.414
			c-10.387,69.115-37.729,108.14-37.729,108.14c-13.43,1.492-67.839,21.579-67.839,21.579c-18.496-43.904-33.242-54.232-66.13-64.54
			c-16.994-5.331-31.986-10.544-45.21-15.62c0,0-0.049-0.029-0.167-0.088c-4.084-2.297-85.402-48.685-50.874-95.407
			c34.862-47.173,36.541-77.087,36.58-78.01c-0.54,1.07-22.767,45.072-49.529,64.668c0,0-38.838-64.776,5.302-115.67
			c-1.208,0.54-104.645,48.783-14.471,186.415c26.223,40.046,69.38,61.193,69.38,61.193s29.492,20.676,48.498,28.53
			c19.007,7.874,16.268,44.149,16.268,44.149s-23.189,96.506-74.868,100.296c-7.118,0.52-14.402,1.718-21.697,3.417
			c-0.02,0-0.029,0.01-0.049,0.01c-3.309,0.756-6.332,2.464-8.747,4.879l-25.241,25.162c-12.969,5.606-21.726,8.453-45.386,26.203
			c-6.941,5.194-13.745,11.624-20.204,18.614c-4.241-19.203-9.827-53.162,0.147-65.846c14.226-18.113,63.401-87.985,63.401-87.985
			l14.844-43.256c-0.844,1.865-15.207,33.213-26.497,43.246c0,0-39.457-29.109-29.757-60.82c9.7-31.691,9.7-31.691,9.7-31.691
			s-14.834,21.55-20.047,51.11c-1.944,10.995,16.179,36.875,26.527,52.406s0.638,1.934,0.638,1.934s-31.2,41.567-59.592,62.832
			c0,0-16.101,14.157-12.861,32.928c2.464,14.304,2.415,63.205,2.258,85.668c-10.691,16.111-17.377,28.53-17.377,28.53
			l-46.437,46.299l25.526,25.526l46.368-46.368c34.273-34.391,65.355-27.735,80.592-62.135
			c15.217-34.342,57.57-57.629,57.707-57.707c10.236-4.464,20.063-8.116,28.84-10.933l126.694,63.89l29.035,34.006l68.723,58.905
			l73.422-40.461l-70.477,17.88L1421.027,913.727z"/>
		<path d="M913.236,578.595c-27.489-33.38-39.27-66.759-39.27-66.759c-47.124-107.993-121.737-53.015-121.737-53.015
			c75.595-22.58,112.901,83.449,112.901,83.449l12.763,53.996L808.435,715.97l0.001,0.015
			c-15.169-18.834-48.091-30.522-71.228-29.692c-29.845,1.08-61.094-99.638-61.094-99.638c-4.3-56.156-3.407-119.705,13.293-166.878
			c16.709-47.183,6.803-64.197,3.799-91.057C690.202,301.878,725.721,234,725.721,234c-38.288,46.142-54.723,92.677-54.723,92.677
			s5.203,10.76,8.708,42.088c3.505,31.308-12.763,46.731-12.763,46.731l-42.755-42.795l-34.656-77.696l25.8,87.749l44.493,58.454
			l-6.352,32.427l-3.367,59.288c0,0-23.405,4.889-71.815-16.876c-48.4-21.775-86.424-120.608-86.424-120.608
			s-69.243-101.012-104.566-112.911c-34.724-11.732-106.294-23.729-108.523-24.092l106.088,37.955c0,0,30.385,21.53,40.291,38.543
			c9.896,17.004,31.681,68.948,52.7,96.055c21.01,27.096,33.419,66.504,33.419,66.504l4.604,26.066c0,0-6.146,8.895-33.635,12.822
			c-27.489,3.927-40.252,10.799-40.252,10.799c-23.562,0-28.471-20.617-28.471-20.617c-14.726-26.507-47.124-49.088-47.124-49.088
			l3.744-15.233c0,0-11.598-41.709-25.343-45.636c-13.745-3.927-37.307,3.927-37.307,3.927s12.763,0.982,29.453,1.964
			c16.69,0.982,16.69,36.325,16.69,36.325l-49.088-1.964l-34.361-44.179l28.471,52.033l46.142,12.763
			c0,0,52.033,48.106,53.996,65.777s36.325,26.507,36.325,26.507c34.361-14.726,100.414-16.081,100.414-16.081
			c69.115,10.387,108.14,37.729,108.14,37.729c1.492,13.43,21.579,67.839,21.579,67.839c-43.904,18.496-54.232,33.242-64.54,66.131
			c-5.331,16.994-10.544,31.986-15.62,45.21c0,0-0.029,0.049-0.088,0.167c-2.297,4.084-48.685,85.403-95.407,50.874
			c-47.173-34.862-77.087-36.541-78.01-36.58c1.07,0.54,45.072,22.767,64.668,49.529c0,0-64.776,38.838-115.67-5.302
			c0.54,1.208,48.783,104.645,186.415,14.471c40.046-26.223,61.193-69.38,61.193-69.38s20.676-29.492,28.53-48.498
			c7.874-19.007,44.149-16.268,44.149-16.268s96.506,23.189,100.296,74.868c0.52,7.118,1.718,14.402,3.417,21.697
			c0,0.02,0.01,0.029,0.01,0.049c0.756,3.309,2.464,6.332,4.879,8.747l25.162,25.241c5.606,12.969,8.453,21.726,26.203,45.386
			c5.194,6.941,11.624,13.745,18.614,20.205c-19.203,4.241-53.162,9.827-65.846-0.147c-18.113-14.226-87.985-63.401-87.985-63.401
			L662.369,827.4c1.865,0.844,33.213,15.207,43.246,26.497c0,0-29.109,39.457-60.82,29.757c-31.691-9.7-31.691-9.7-31.691-9.7
			s21.55,14.834,51.11,20.047c10.995,1.944,36.875-16.179,52.406-26.527c15.531-10.348,1.934-0.638,1.934-0.638
			s41.567,31.2,62.832,59.592c0,0,14.157,16.101,32.928,12.861c14.304-2.464,63.205-2.415,85.668-2.258
			c16.111,10.691,28.53,17.377,28.53,17.377l46.3,46.437l25.526-25.526l-46.368-46.368c-34.391-34.273-27.735-65.355-62.135-80.592
			c-34.342-15.217-57.629-57.57-57.707-57.707c-4.464-10.236-8.116-20.063-10.933-28.84l63.89-126.694l34.006-29.035l58.905-68.723
			l-40.461-73.422l17.88,70.477L913.236,578.595z"/>
		<path d="M578.973,1087.255c-33.38,27.489-66.759,39.27-66.759,39.27c-107.993,47.124-53.014,121.737-53.014,121.737
			c-22.58-75.595,83.449-112.901,83.449-112.901l53.996-12.763l119.704,69.458l0.015-0.001
			c-18.834,15.169-30.522,48.091-29.692,71.228c1.08,29.845-99.638,61.095-99.638,61.095c-56.156,4.3-119.705,3.407-166.878-13.293
			c-47.183-16.709-64.197-6.803-91.057-3.799c-26.841,3.004-94.719-32.516-94.719-32.516c46.142,38.288,92.677,54.723,92.677,54.723
			s10.76-5.203,42.088-8.708c31.308-3.505,46.731,12.763,46.731,12.763l-42.795,42.755l-77.696,34.656l87.749-25.8l58.454-44.493
			l32.427,6.352l59.288,3.367c0,0,4.889,23.405-16.876,71.815c-21.775,48.4-120.608,86.424-120.608,86.424
			s-101.012,69.243-112.911,104.566c-11.732,34.724-23.729,106.294-24.092,108.523l37.954-106.088c0,0,21.53-30.385,38.543-40.291
			c17.004-9.896,68.948-31.681,96.055-52.7c27.096-21.01,66.504-33.419,66.504-33.419l26.066-4.604c0,0,8.895,6.146,12.822,33.635
			c3.927,27.489,10.799,40.252,10.799,40.252c0,23.562-20.617,28.471-20.617,28.471c-26.507,14.726-49.088,47.124-49.088,47.124
			l-15.233-3.744c0,0-41.709,11.598-45.636,25.343s3.927,37.307,3.927,37.307s0.982-12.763,1.964-29.453
			c0.982-16.69,36.325-16.69,36.325-16.69l-1.963,49.088l-44.179,34.361l52.033-28.471l12.763-46.142
			c0,0,48.106-52.033,65.777-53.996s26.507-36.325,26.507-36.325c-14.726-34.361-16.081-100.414-16.081-100.414
			c10.387-69.115,37.729-108.14,37.729-108.14c13.43-1.492,67.839-21.579,67.839-21.579c18.496,43.904,33.242,54.232,66.131,64.54
			c16.994,5.331,31.986,10.544,45.21,15.62c0,0,0.049,0.029,0.167,0.088c4.084,2.297,85.403,48.685,50.874,95.407
			c-34.862,47.173-36.541,77.087-36.58,78.01c0.54-1.07,22.767-45.072,49.529-64.668c0,0,38.838,64.776-5.301,115.67
			c1.208-0.54,104.645-48.783,14.471-186.415c-26.223-40.046-69.38-61.193-69.38-61.193s-29.492-20.676-48.498-28.53
			c-19.007-7.874-16.268-44.149-16.268-44.149s23.189-96.506,74.868-100.296c7.118-0.52,14.403-1.718,21.697-3.417
			c0.02,0,0.029-0.01,0.049-0.01c3.309-0.756,6.332-2.464,8.747-4.879l25.241-25.162c12.969-5.606,21.726-8.453,45.386-26.203
			c6.941-5.194,13.745-11.624,20.204-18.614c4.241,19.203,9.827,53.162-0.147,65.846c-14.226,18.113-63.401,87.984-63.401,87.984
			l-14.844,43.256c0.844-1.865,15.207-33.213,26.497-43.246c0,0,39.457,29.109,29.757,60.82c-9.7,31.691-9.7,31.691-9.7,31.691
			s14.834-21.55,20.047-51.11c1.944-10.995-16.179-36.875-26.527-52.406c-10.348-15.531-0.638-1.934-0.638-1.934
			s31.2-41.567,59.592-62.832c0,0,16.101-14.157,12.861-32.928c-2.464-14.304-2.415-63.205-2.258-85.668
			c10.691-16.111,17.377-28.53,17.377-28.53l46.437-46.3l-25.526-25.525l-46.368,46.368c-34.273,34.391-65.355,27.735-80.592,62.135
			c-15.217,34.342-57.57,57.629-57.707,57.707c-10.236,4.464-20.063,8.116-28.84,10.932l-126.694-63.89l-29.035-34.006
			l-68.723-58.905l-73.422,40.461l70.477-17.881L578.973,1087.255z"/>
		<path d="M1085.783,1421.405c27.489,33.38,39.27,66.759,39.27,66.759c47.124,107.993,121.737,53.015,121.737,53.015
			c-75.595,22.58-112.901-83.449-112.901-83.449l-12.763-53.996l69.458-119.704l-0.001-0.015
			c15.169,18.834,48.091,30.522,71.228,29.693c29.845-1.08,61.094,99.638,61.094,99.638c4.3,56.156,3.407,119.705-13.293,166.878
			c-16.709,47.183-6.803,64.197-3.799,91.057c3.004,26.841-32.516,94.719-32.516,94.719c38.288-46.142,54.723-92.677,54.723-92.677
			s-5.203-10.76-8.708-42.088c-3.505-31.308,12.763-46.731,12.763-46.731l42.755,42.795l34.656,77.696l-25.8-87.749l-44.493-58.453
			l6.352-32.427l3.367-59.288c0,0,23.405-4.889,71.815,16.876c48.4,21.775,86.424,120.608,86.424,120.608
			s69.243,101.012,104.566,112.911c34.724,11.732,106.294,23.729,108.523,24.092l-106.088-37.954c0,0-30.385-21.53-40.291-38.543
			c-9.896-17.004-31.681-68.948-52.7-96.055c-21.01-27.096-33.419-66.504-33.419-66.504l-4.604-26.066
			c0,0,6.146-8.895,33.635-12.822s40.252-10.799,40.252-10.799c23.562,0,28.471,20.617,28.471,20.617
			c14.726,26.507,47.124,49.088,47.124,49.088l-3.744,15.233c0,0,11.598,41.708,25.343,45.635s37.307-3.927,37.307-3.927
			s-12.763-0.982-29.453-1.964c-16.69-0.982-16.69-36.325-16.69-36.325l49.088,1.964l34.361,44.179l-28.471-52.033l-46.142-12.763
			c0,0-52.033-48.106-53.996-65.777s-36.325-26.507-36.325-26.507c-34.361,14.726-100.414,16.081-100.414,16.081
			c-69.115-10.387-108.14-37.729-108.14-37.729c-1.492-13.43-21.579-67.839-21.579-67.839c43.904-18.496,54.232-33.242,64.54-66.131
			c5.331-16.994,10.544-31.986,15.62-45.21c0,0,0.029-0.049,0.088-0.167c2.297-4.084,48.685-85.403,95.407-50.874
			c47.173,34.862,77.087,36.541,78.01,36.58c-1.07-0.54-45.072-22.767-64.668-49.529c0,0,64.776-38.838,115.67,5.302
			c-0.54-1.208-48.783-104.645-186.415-14.471c-40.046,26.223-61.193,69.38-61.193,69.38s-20.676,29.492-28.53,48.499
			c-7.874,19.007-44.149,16.268-44.149,16.268s-96.506-23.189-100.296-74.868c-0.52-7.118-1.718-14.403-3.417-21.697
			c0-0.02-0.01-0.029-0.01-0.049c-0.756-3.309-2.464-6.332-4.879-8.747l-25.162-25.241c-5.606-12.969-8.453-21.726-26.203-45.386
			c-5.194-6.941-11.624-13.745-18.614-20.204c19.203-4.241,53.162-9.827,65.846,0.147c18.113,14.226,87.984,63.401,87.984,63.401
			l43.256,14.844c-1.865-0.844-33.213-15.207-43.246-26.497c0,0,29.109-39.457,60.82-29.757c31.691,9.7,31.691,9.7,31.691,9.7
			s-21.55-14.834-51.11-20.047c-10.995-1.944-36.875,16.179-52.406,26.527c-15.531,10.348-1.934,0.638-1.934,0.638
			s-41.567-31.2-62.832-59.592c0,0-14.157-16.101-32.928-12.861c-14.304,2.464-63.205,2.415-85.668,2.258
			c-16.111-10.691-28.53-17.377-28.53-17.377l-46.3-46.437l-25.526,25.526l46.368,46.368c34.391,34.273,27.735,65.355,62.135,80.592
			c34.342,15.217,57.629,57.57,57.707,57.707c4.464,10.236,8.116,20.063,10.933,28.84l-63.89,126.694l-34.006,29.035l-58.905,68.723
			l40.461,73.422l-17.88-70.477L1085.783,1421.405z"/>
		<rect x="982.5" y="982.766" transform="matrix(0.7071 0.7071 -0.7071 0.7071 1000.043 -414.0761)" width="34.71" height="34.71"/>
	</g>
</g>
<g id="Layer_1">
</g>
</svg>
